<svg width="164" height="211" viewBox="0 0 164 211" fill="none" xmlns="http://www.w3.org/2000/svg">
<path d="M120.681 10.25H44.3761C33.8474 10.25 30.75 18.1938 30.75 23.1938V144.797C30.75 150.432 33.7673 152.523 35.465 153.212C37.1627 153.901 41.8424 154.493 44.6484 151.236C44.6484 151.236 80.6739 109.31 81.2921 108.688C82.2274 107.75 82.2274 107.75 83.1627 107.75H106.472C116.267 107.75 117.84 100.745 118.865 96.6191C119.714 93.1629 129.269 44.0878 132.462 28.5334C134.896 16.6562 131.885 10.25 120.681 10.25ZM118.865 96.6191C119.714 93.1629 129.269 44.0878 132.462 28.5334L118.865 96.6191ZM116.174 30.9646L112.971 47.5344C112.59 49.3441 110.319 51.25 108.211 51.25H77.4868C74.1427 51.25 71.75 53.2167 71.75 56.5672V60.8754C71.75 64.2291 74.1587 66.6058 77.5156 66.6058H103.733C106.097 66.6058 108.413 69.2035 107.897 71.7308C107.382 74.258 104.986 86.6477 104.694 88.0315C104.403 89.4152 102.824 91.7855 100.014 91.7855H79.4375C75.6898 91.7855 74.5559 92.2788 72.0479 95.4051C69.5398 98.5313 46.9802 125.703 46.9802 125.703C46.7528 125.966 46.5286 125.889 46.5286 125.604V30.718C46.5286 28.5751 48.3864 26.0638 51.1667 26.0638H112.391C112.985 26.0768 113.568 26.2224 114.098 26.49C114.628 26.7576 115.091 27.1404 115.454 27.6103C115.816 28.0802 116.069 28.6254 116.194 29.2058C116.319 29.7862 116.312 30.3872 116.174 30.9646Z" fill="black"/>
<path d="M12.2047 177.22C12.6947 177.243 13.3363 177.267 14.1297 177.29C14.923 177.313 15.7047 177.325 16.4747 177.325C17.5713 177.325 18.6213 177.313 19.6247 177.29C20.628 177.267 21.3397 177.255 21.7597 177.255C24.583 177.255 26.6947 177.897 28.0947 179.18C29.4947 180.463 30.1947 182.12 30.1947 184.15C30.1947 184.99 30.0547 185.877 29.7747 186.81C29.4947 187.72 29.0047 188.572 28.3047 189.365C27.628 190.135 26.6947 190.765 25.5047 191.255C24.3147 191.745 22.8097 191.99 20.9897 191.99H17.6297V191.29H20.6397C22.2963 191.29 23.5563 190.975 24.4197 190.345C25.3063 189.715 25.9013 188.887 26.2047 187.86C26.5313 186.833 26.6947 185.725 26.6947 184.535C26.6947 182.318 26.2513 180.662 25.3647 179.565C24.5013 178.468 23.008 177.92 20.8847 177.92C19.8113 177.92 19.1113 178.118 18.7847 178.515C18.458 178.912 18.2947 179.717 18.2947 180.93V198.29C18.2947 199.13 18.3763 199.76 18.5397 200.18C18.7263 200.6 19.0763 200.88 19.5897 201.02C20.103 201.16 20.8497 201.253 21.8297 201.3V202C21.223 201.953 20.453 201.93 19.5197 201.93C18.5863 201.907 17.6413 201.895 16.6847 201.895C15.7747 201.895 14.923 201.907 14.1297 201.93C13.3363 201.93 12.6947 201.953 12.2047 202V201.3C12.998 201.253 13.593 201.16 13.9897 201.02C14.4097 200.88 14.6897 200.6 14.8297 200.18C14.9697 199.76 15.0397 199.13 15.0397 198.29V180.93C15.0397 180.067 14.9697 179.437 14.8297 179.04C14.6897 178.62 14.4097 178.34 13.9897 178.2C13.593 178.037 12.998 177.943 12.2047 177.92V177.22ZM36.3008 175.225C36.9075 175.225 37.4325 175.447 37.8758 175.89C38.3191 176.333 38.5408 176.858 38.5408 177.465C38.5408 178.072 38.3191 178.597 37.8758 179.04C37.4325 179.483 36.9075 179.705 36.3008 179.705C35.6941 179.705 35.1691 179.483 34.7258 179.04C34.2825 178.597 34.0608 178.072 34.0608 177.465C34.0608 176.858 34.2825 176.333 34.7258 175.89C35.1691 175.447 35.6941 175.225 36.3008 175.225ZM38.1208 183.59V198.745C38.1208 199.725 38.3191 200.39 38.7158 200.74C39.1358 201.09 39.8241 201.265 40.7808 201.265V202C40.3841 201.977 39.7775 201.953 38.9608 201.93C38.1675 201.883 37.3625 201.86 36.5458 201.86C35.7525 201.86 34.9475 201.883 34.1308 201.93C33.3141 201.953 32.7075 201.977 32.3108 202V201.265C33.2675 201.265 33.9441 201.09 34.3408 200.74C34.7608 200.39 34.9708 199.725 34.9708 198.745V187.79C34.9708 186.74 34.7841 185.97 34.4108 185.48C34.0375 184.967 33.3375 184.71 32.3108 184.71V183.975C33.0575 184.045 33.7808 184.08 34.4808 184.08C35.1575 184.08 35.7991 184.045 36.4058 183.975C37.0358 183.882 37.6075 183.753 38.1208 183.59ZM54.4122 183.485C55.2989 183.485 56.0339 183.602 56.6172 183.835C57.2239 184.068 57.7255 184.395 58.1222 184.815C58.5655 185.282 58.8805 185.865 59.0672 186.565C59.2539 187.265 59.3472 188.21 59.3472 189.4V198.745C59.3472 199.725 59.5455 200.39 59.9422 200.74C60.3622 201.09 61.0505 201.265 62.0072 201.265V202C61.6105 201.977 61.0039 201.953 60.1872 201.93C59.3705 201.883 58.5772 201.86 57.8072 201.86C57.0372 201.86 56.2789 201.883 55.5322 201.93C54.8089 201.953 54.2605 201.977 53.8872 202V201.265C54.7272 201.265 55.3222 201.09 55.6722 200.74C56.0222 200.39 56.1972 199.725 56.1972 198.745V188.63C56.1972 187.907 56.1389 187.242 56.0222 186.635C55.9055 186.028 55.6372 185.538 55.2172 185.165C54.8205 184.792 54.2022 184.605 53.3622 184.605C52.3822 184.605 51.5189 184.885 50.7722 185.445C50.0489 186.005 49.4772 186.775 49.0572 187.755C48.6605 188.712 48.4622 189.785 48.4622 190.975V198.745C48.4622 199.725 48.6372 200.39 48.9872 200.74C49.3372 201.09 49.9322 201.265 50.7722 201.265V202C50.3989 201.977 49.8389 201.953 49.0922 201.93C48.3689 201.883 47.6222 201.86 46.8522 201.86C46.0822 201.86 45.2889 201.883 44.4722 201.93C43.6555 201.953 43.0489 201.977 42.6522 202V201.265C43.6089 201.265 44.2855 201.09 44.6822 200.74C45.1022 200.39 45.3122 199.725 45.3122 198.745V187.79C45.3122 186.74 45.1255 185.97 44.7522 185.48C44.3789 184.967 43.6789 184.71 42.6522 184.71V183.975C43.3989 184.045 44.1222 184.08 44.8222 184.08C45.4989 184.08 46.1405 184.045 46.7472 183.975C47.3772 183.882 47.9489 183.753 48.4622 183.59V187.72C49.0689 186.133 49.9089 185.037 50.9822 184.43C52.0789 183.8 53.2222 183.485 54.4122 183.485ZM69.2585 178.165V184.01H74.4385V184.71H69.2585V198.255C69.2585 199.352 69.4568 200.122 69.8535 200.565C70.2502 201.008 70.7985 201.23 71.4985 201.23C72.1985 201.23 72.8052 200.95 73.3185 200.39C73.8318 199.807 74.2752 198.838 74.6485 197.485L75.3485 197.66C75.1152 199.013 74.6485 200.157 73.9485 201.09C73.2718 202.023 72.2218 202.49 70.7985 202.49C70.0052 202.49 69.3518 202.385 68.8385 202.175C68.3252 201.988 67.8702 201.708 67.4735 201.335C66.9602 200.798 66.5985 200.157 66.3885 199.41C66.2018 198.663 66.1085 197.672 66.1085 196.435V184.71H62.7485V184.01H66.1085V178.655C66.6918 178.632 67.2518 178.585 67.7885 178.515C68.3252 178.445 68.8152 178.328 69.2585 178.165ZM84.589 183.485C86.6424 183.485 88.2407 184.115 89.384 185.375C90.5507 186.612 91.134 188.548 91.134 191.185H78.779L78.744 190.52H87.774C87.8207 189.377 87.7274 188.327 87.494 187.37C87.2607 186.39 86.8874 185.608 86.374 185.025C85.884 184.442 85.2424 184.15 84.449 184.15C83.3757 184.15 82.419 184.687 81.579 185.76C80.7624 186.833 80.2724 188.537 80.109 190.87L80.214 191.01C80.1674 191.36 80.1324 191.745 80.109 192.165C80.0857 192.585 80.074 193.005 80.074 193.425C80.074 195.012 80.3307 196.377 80.844 197.52C81.3574 198.663 82.0224 199.538 82.839 200.145C83.679 200.728 84.5424 201.02 85.429 201.02C86.129 201.02 86.794 200.915 87.424 200.705C88.054 200.472 88.6374 200.098 89.174 199.585C89.7107 199.072 90.1774 198.383 90.574 197.52L91.274 197.8C91.0174 198.57 90.5974 199.317 90.014 200.04C89.4307 200.763 88.6957 201.358 87.809 201.825C86.9224 202.268 85.8957 202.49 84.729 202.49C83.049 202.49 81.6024 202.105 80.389 201.335C79.199 200.565 78.2774 199.503 77.624 198.15C76.994 196.773 76.679 195.198 76.679 193.425C76.679 191.372 77.0057 189.61 77.659 188.14C78.3124 186.647 79.234 185.503 80.424 184.71C81.614 183.893 83.0024 183.485 84.589 183.485ZM104.762 183.485C105.392 183.485 105.94 183.613 106.407 183.87C106.897 184.127 107.27 184.465 107.527 184.885C107.807 185.282 107.947 185.737 107.947 186.25C107.947 186.833 107.76 187.347 107.387 187.79C107.037 188.233 106.558 188.455 105.952 188.455C105.462 188.455 105.03 188.303 104.657 188C104.283 187.673 104.097 187.218 104.097 186.635C104.097 186.192 104.213 185.818 104.447 185.515C104.703 185.188 104.983 184.932 105.287 184.745C105.123 184.512 104.878 184.395 104.552 184.395C103.828 184.395 103.163 184.617 102.557 185.06C101.95 185.48 101.437 186.028 101.017 186.705C100.597 187.382 100.27 188.105 100.037 188.875C99.8033 189.622 99.6866 190.322 99.6866 190.975V198.395C99.6866 199.538 100.013 200.308 100.667 200.705C101.343 201.078 102.253 201.265 103.397 201.265V202C102.86 201.977 102.102 201.953 101.122 201.93C100.142 201.883 99.1033 201.86 98.0066 201.86C97.2133 201.86 96.42 201.883 95.6266 201.93C94.8566 201.953 94.2733 201.977 93.8766 202V201.265C94.8333 201.265 95.51 201.09 95.9066 200.74C96.3266 200.39 96.5366 199.725 96.5366 198.745V187.79C96.5366 186.74 96.35 185.97 95.9766 185.48C95.6033 184.967 94.9033 184.71 93.8766 184.71V183.975C94.6233 184.045 95.3466 184.08 96.0466 184.08C96.7233 184.08 97.365 184.045 97.9716 183.975C98.6016 183.882 99.1733 183.753 99.6866 183.59V187.965C99.9433 187.288 100.305 186.612 100.772 185.935C101.262 185.235 101.845 184.652 102.522 184.185C103.198 183.718 103.945 183.485 104.762 183.485ZM117.371 183.485C119.425 183.485 121.023 184.115 122.166 185.375C123.333 186.612 123.916 188.548 123.916 191.185H111.561L111.526 190.52H120.556C120.603 189.377 120.51 188.327 120.276 187.37C120.043 186.39 119.67 185.608 119.156 185.025C118.666 184.442 118.025 184.15 117.231 184.15C116.158 184.15 115.201 184.687 114.361 185.76C113.545 186.833 113.055 188.537 112.891 190.87L112.996 191.01C112.95 191.36 112.915 191.745 112.891 192.165C112.868 192.585 112.856 193.005 112.856 193.425C112.856 195.012 113.113 196.377 113.626 197.52C114.14 198.663 114.805 199.538 115.621 200.145C116.461 200.728 117.325 201.02 118.211 201.02C118.911 201.02 119.576 200.915 120.206 200.705C120.836 200.472 121.42 200.098 121.956 199.585C122.493 199.072 122.96 198.383 123.356 197.52L124.056 197.8C123.8 198.57 123.38 199.317 122.796 200.04C122.213 200.763 121.478 201.358 120.591 201.825C119.705 202.268 118.678 202.49 117.511 202.49C115.831 202.49 114.385 202.105 113.171 201.335C111.981 200.565 111.06 199.503 110.406 198.15C109.776 196.773 109.461 195.198 109.461 193.425C109.461 191.372 109.788 189.61 110.441 188.14C111.095 186.647 112.016 185.503 113.206 184.71C114.396 183.893 115.785 183.485 117.371 183.485ZM132.924 183.485C133.857 183.485 134.651 183.637 135.304 183.94C135.957 184.243 136.436 184.523 136.739 184.78C137.509 185.41 137.976 184.99 138.139 183.52H138.944C138.897 184.173 138.862 184.955 138.839 185.865C138.816 186.752 138.804 187.953 138.804 189.47H137.999C137.859 188.607 137.614 187.767 137.264 186.95C136.937 186.133 136.447 185.468 135.794 184.955C135.141 184.418 134.289 184.15 133.239 184.15C132.422 184.15 131.734 184.383 131.174 184.85C130.637 185.293 130.369 185.958 130.369 186.845C130.369 187.545 130.579 188.152 130.999 188.665C131.419 189.155 131.967 189.622 132.644 190.065C133.321 190.485 134.056 190.952 134.849 191.465C135.736 192.025 136.541 192.597 137.264 193.18C137.987 193.763 138.559 194.405 138.979 195.105C139.422 195.805 139.644 196.633 139.644 197.59C139.644 198.663 139.364 199.562 138.804 200.285C138.244 201.008 137.509 201.557 136.599 201.93C135.712 202.303 134.732 202.49 133.659 202.49C133.146 202.49 132.656 202.443 132.189 202.35C131.746 202.28 131.314 202.163 130.894 202C130.661 201.883 130.416 201.743 130.159 201.58C129.926 201.417 129.692 201.242 129.459 201.055C129.226 200.868 129.016 200.88 128.829 201.09C128.642 201.277 128.502 201.662 128.409 202.245H127.604C127.651 201.498 127.686 200.588 127.709 199.515C127.732 198.442 127.744 197.018 127.744 195.245H128.549C128.712 196.552 128.946 197.695 129.249 198.675C129.552 199.655 130.031 200.425 130.684 200.985C131.337 201.522 132.247 201.79 133.414 201.79C133.881 201.79 134.347 201.685 134.814 201.475C135.304 201.265 135.712 200.915 136.039 200.425C136.366 199.935 136.529 199.282 136.529 198.465C136.529 197.438 136.156 196.598 135.409 195.945C134.662 195.292 133.717 194.603 132.574 193.88C131.734 193.343 130.941 192.807 130.194 192.27C129.471 191.733 128.876 191.127 128.409 190.45C127.966 189.773 127.744 188.957 127.744 188C127.744 186.95 127.977 186.098 128.444 185.445C128.934 184.768 129.576 184.278 130.369 183.975C131.162 183.648 132.014 183.485 132.924 183.485ZM148.036 178.165V184.01H153.216V184.71H148.036V198.255C148.036 199.352 148.234 200.122 148.631 200.565C149.028 201.008 149.576 201.23 150.276 201.23C150.976 201.23 151.583 200.95 152.096 200.39C152.609 199.807 153.053 198.838 153.426 197.485L154.126 197.66C153.893 199.013 153.426 200.157 152.726 201.09C152.049 202.023 150.999 202.49 149.576 202.49C148.783 202.49 148.129 202.385 147.616 202.175C147.103 201.988 146.648 201.708 146.251 201.335C145.738 200.798 145.376 200.157 145.166 199.41C144.979 198.663 144.886 197.672 144.886 196.435V184.71H141.526V184.01H144.886V178.655C145.469 178.632 146.029 178.585 146.566 178.515C147.103 178.445 147.593 178.328 148.036 178.165Z" fill="#301E4E"/>
</svg>
