<svg width="164" height="211" viewBox="0 0 164 211" fill="none" xmlns="http://www.w3.org/2000/svg">
<path d="M105.927 112.75L130.822 51.25H114.32L97.2917 90.9912L85.1807 51.25H72.4931L59.4948 90.9912L50.3243 72.8839L42.0282 98.3359L50.4524 112.75H66.6923L78.4413 77.1088L89.6523 112.75H105.927ZM15.628 91.6382H25.7659C28.5358 91.6771 31.2977 91.3311 33.9723 90.61L36.5925 82.5413L43.9212 59.9945C43.3558 59.1045 42.7127 58.2663 41.9994 57.4897C38.2453 53.3299 32.7434 51.25 25.4937 51.25H0V112.75H15.628V91.6382ZM29.0491 65.3982C30.5204 66.8759 31.255 68.8533 31.2529 71.3304C31.2508 73.8075 30.6101 75.7859 29.331 77.2658C27.9131 78.893 25.3036 79.7055 21.5026 79.7034H15.628V63.1816H21.5282C25.0709 63.1816 27.5778 63.9205 29.0491 65.3982ZM120.71 101.734L125.447 89.8028H139.121L132.632 71.702L140.749 51.25L164 112.75H146.854L142.882 101.734H120.71Z" fill="black"/>
<path d="M47.2717 177.22C47.7617 177.243 48.4033 177.267 49.1967 177.29C49.99 177.313 50.7717 177.325 51.5417 177.325C52.6383 177.325 53.6883 177.313 54.6917 177.29C55.695 177.267 56.4067 177.255 56.8267 177.255C59.65 177.255 61.7617 177.897 63.1617 179.18C64.5617 180.463 65.2617 182.12 65.2617 184.15C65.2617 184.99 65.1217 185.877 64.8417 186.81C64.5617 187.72 64.0717 188.572 63.3717 189.365C62.695 190.135 61.7617 190.765 60.5717 191.255C59.3817 191.745 57.8767 191.99 56.0567 191.99H52.6967V191.29H55.7067C57.3633 191.29 58.6233 190.975 59.4867 190.345C60.3733 189.715 60.9683 188.887 61.2717 187.86C61.5983 186.833 61.7617 185.725 61.7617 184.535C61.7617 182.318 61.3183 180.662 60.4317 179.565C59.5683 178.468 58.075 177.92 55.9517 177.92C54.8783 177.92 54.1783 178.118 53.8517 178.515C53.525 178.912 53.3617 179.717 53.3617 180.93V198.29C53.3617 199.13 53.4433 199.76 53.6067 200.18C53.7933 200.6 54.1433 200.88 54.6567 201.02C55.17 201.16 55.9167 201.253 56.8967 201.3V202C56.29 201.953 55.52 201.93 54.5867 201.93C53.6533 201.907 52.7083 201.895 51.7517 201.895C50.8417 201.895 49.99 201.907 49.1967 201.93C48.4033 201.93 47.7617 201.953 47.2717 202V201.3C48.065 201.253 48.66 201.16 49.0567 201.02C49.4767 200.88 49.7567 200.6 49.8967 200.18C50.0367 199.76 50.1067 199.13 50.1067 198.29V180.93C50.1067 180.067 50.0367 179.437 49.8967 179.04C49.7567 178.62 49.4767 178.34 49.0567 178.2C48.66 178.037 48.065 177.943 47.2717 177.92V177.22ZM98.1078 177.22V177.92C97.6645 178.013 97.1745 178.282 96.6378 178.725C96.1011 179.145 95.6695 179.892 95.3428 180.965L88.7278 202.175C88.6811 202.175 88.6345 202.175 88.5878 202.175C88.5411 202.175 88.4945 202.175 88.4478 202.175C88.4011 202.175 88.3545 202.175 88.3078 202.175C88.2611 202.175 88.2145 202.175 88.1678 202.175L80.7478 180.16C80.4445 179.25 80.1061 178.655 79.7328 178.375C79.3595 178.095 79.0095 177.943 78.6828 177.92V177.22C79.1028 177.243 79.6278 177.267 80.2578 177.29C80.8878 177.313 81.4945 177.325 82.0778 177.325C82.9878 177.325 83.8395 177.313 84.6328 177.29C85.4261 177.267 86.0678 177.243 86.5578 177.22V177.92C85.8578 177.943 85.2978 178.013 84.8778 178.13C84.4811 178.247 84.2478 178.503 84.1778 178.9C84.1311 179.297 84.2478 179.95 84.5278 180.86L89.7428 196.995L89.2528 197.415L93.8728 182.89C94.2928 181.607 94.4795 180.615 94.4328 179.915C94.4095 179.192 94.1528 178.69 93.6628 178.41C93.1728 178.107 92.4378 177.943 91.4578 177.92V177.22C92.1345 177.243 92.8228 177.267 93.5228 177.29C94.2228 177.313 94.8761 177.325 95.4828 177.325C96.0895 177.325 96.5911 177.313 96.9878 177.29C97.3845 177.267 97.7578 177.243 98.1078 177.22ZM73.6428 177.22V177.92C73.0361 177.967 72.5928 178.083 72.3128 178.27C72.0561 178.457 71.9278 178.76 71.9278 179.18C71.9511 179.577 72.0795 180.137 72.3128 180.86L77.7378 197.415L76.8628 198.29L81.7628 182.645L82.2878 183.485L76.5128 202.175C76.4661 202.175 76.4195 202.175 76.3728 202.175C76.3261 202.175 76.2795 202.175 76.2328 202.175C76.1861 202.175 76.1395 202.175 76.0928 202.175C76.0461 202.175 75.9995 202.175 75.9528 202.175L68.5328 180.16C68.2295 179.25 67.8445 178.655 67.3778 178.375C66.9111 178.095 66.4911 177.943 66.1178 177.92V177.22C66.5845 177.243 67.1561 177.267 67.8328 177.29C68.5328 177.313 69.2095 177.325 69.8628 177.325C70.6328 177.325 71.3445 177.313 71.9978 177.29C72.6745 177.267 73.2228 177.243 73.6428 177.22ZM107.457 177.045L115.997 199.06C116.347 199.947 116.744 200.542 117.187 200.845C117.631 201.125 118.039 201.277 118.412 201.3V202C117.946 201.953 117.374 201.93 116.697 201.93C116.021 201.907 115.344 201.895 114.667 201.895C113.757 201.895 112.906 201.907 112.112 201.93C111.319 201.93 110.677 201.953 110.187 202V201.3C111.377 201.253 112.136 201.055 112.462 200.705C112.789 200.332 112.719 199.55 112.252 198.36L105.742 180.965L106.302 180.51L100.212 196.33C99.8391 197.263 99.6174 198.057 99.5474 198.71C99.4774 199.34 99.5358 199.842 99.7224 200.215C99.9324 200.588 100.271 200.857 100.737 201.02C101.227 201.183 101.834 201.277 102.557 201.3V202C101.904 201.953 101.216 201.93 100.492 201.93C99.7924 201.907 99.1391 201.895 98.5324 201.895C97.9491 201.895 97.4474 201.907 97.0274 201.93C96.6308 201.93 96.2574 201.953 95.9074 202V201.3C96.3741 201.183 96.8524 200.915 97.3424 200.495C97.8324 200.052 98.2758 199.305 98.6724 198.255L106.897 177.045C106.991 177.045 107.084 177.045 107.177 177.045C107.271 177.045 107.364 177.045 107.457 177.045ZM111.727 191.92V192.62H101.297L101.647 191.92H111.727Z" fill="#1F1235"/>
</svg>
