<svg width="164" height="211" viewBox="0 0 164 211" fill="none" xmlns="http://www.w3.org/2000/svg">
<g clip-path="url(#clip0_1_1838)">
<path d="M163.93 105.085C163.459 101.267 161.524 97.9547 158.164 95.2289C158.122 95.178 158.076 95.1309 158.026 95.0879L157.856 94.9662L157.802 94.9278L156.018 93.6465L155.957 93.6017L155.73 93.4415C155.646 93.3929 155.557 93.3552 155.464 93.3294C149.82 89.9694 140.476 87.6151 126.181 92.66C122.769 86.92 122.382 82.3203 124.666 75.2734C125.072 74.0466 124.694 73.2362 123.477 72.7109C121.03 71.6699 117.68 72.2016 115.303 72.8294C114.195 73.1177 113.528 73.7455 113.317 74.6969C111.812 81.7437 107.436 88.182 103.205 94.3961L102.955 94.7612C100.348 89.2326 100.889 84.9501 102.705 79.5848C103.067 78.515 102.782 77.8039 101.779 77.2722C98.9798 75.8276 94.7805 76.8205 93.1085 77.3138C90.988 77.932 88.7138 83.6624 86.1737 90.5235C85.5331 92.25 84.9821 93.7266 84.6522 94.4153C83.8674 96.0169 83.1179 97.8426 82.3235 99.7805C80.5298 104.166 78.5086 109.102 75.6194 112.202C74.5688 109.88 76.2216 106.219 77.8263 102.667C79.7258 98.4672 81.5196 94.4986 79.4535 91.9649C79.1268 91.5643 78.7215 91.2349 78.2626 90.9969C77.8037 90.7589 77.301 90.6174 76.7853 90.5812C76.1126 90.5299 75.4373 90.6397 74.8154 90.9015C75.03 89.0917 75.0396 87.6631 74.5111 85.9366C73.7552 83.4734 71.7917 82.0929 69.0882 82.1665C62.9318 82.3459 57.7235 86.9328 54.4339 90.7509C52.243 93.3134 47.3871 95.2673 43.1237 96.981C41.4389 97.6953 39.8373 98.3359 38.5016 98.9765C36.3715 97.1764 33.6649 95.3602 30.8141 93.4415C22.8063 88.0667 13.7318 81.9711 13.4179 73.7071C12.9695 61.5 26.871 52.8419 39.0045 46.6631C48.2006 41.9865 56.1956 38.8859 63.4475 37.1915C73.6335 34.8115 82.2371 35.292 89.0149 38.6137C92.7241 40.4298 94.4602 44.3793 93.3583 48.4408C90.4755 58.9951 78.531 66.2278 68.3163 69.4822C62.1631 71.4425 56.926 72.2625 52.3006 71.9934C46.503 71.6571 41.7688 68.7486 39.7444 67.509C39.4201 67.2875 39.0771 67.0946 38.7194 66.9325L38.6265 66.9101C38.4432 66.8644 38.2509 66.8702 38.0706 66.9267C37.8904 66.9832 37.7292 67.0883 37.6047 67.2304C37.1883 67.7269 37.3356 68.5116 37.4862 68.9088C39.4561 74.0562 43.5241 77.3074 49.5748 78.5726C51.555 78.9692 53.5708 79.1613 55.5903 79.146C69.7513 79.146 87.8201 70.9812 94.457 64.2579C98.983 59.6774 102.279 54.9688 103.644 46.8489C105.069 38.3446 99.3033 32.4348 93.4288 29.7122C79.1524 23.1233 62.9382 25.7275 51.849 29.0715C38.8763 32.9826 25.4553 40.0935 15.0323 48.5882C2.18135 59.0528 -2.46318 68.7679 1.22041 77.4964C5.0033 86.4427 14.2283 92.0386 23.149 97.4519C26.0318 99.1976 28.7737 100.86 31.2433 102.577C30.5002 102.939 29.741 103.307 28.9691 103.676C21.4802 107.305 12.9855 111.389 8.27369 118.138C4.85276 123.054 4.21213 127.949 6.37104 132.686C7.52416 135.207 9.57416 136.918 12.4217 137.77C13.903 138.189 15.4371 138.393 16.9766 138.375C22.5212 138.375 28.6231 136.133 31.9448 134.06C37.8129 130.377 41.615 125.431 43.2486 119.361C44.7028 113.961 44.3537 108.596 42.2396 103.807L49.4306 100.181C45.9617 111.712 48.6203 118.599 51.5415 122.398C52.6178 123.798 54.5588 124.64 56.7274 124.678C58.8959 124.717 60.8914 123.9 62.0189 122.51C64.1522 119.867 65.7281 116.776 67.1792 113.685C67.1023 115.703 67.1984 117.747 67.8871 119.48C68.5053 121.04 69.5238 122.074 70.8371 122.471C72.2337 122.897 73.8705 122.539 75.4464 121.462C82.5478 116.603 87.4037 104.941 91.3051 95.5652C91.8592 94.2327 92.391 92.9515 92.9067 91.7535C93.8719 95.2078 95.2146 98.5453 96.9106 101.706C97.2885 102.391 97.2565 102.692 96.744 103.256C95.9721 104.102 94.8958 105.123 93.7555 106.206C90.3025 109.483 86.0039 113.573 85.4274 117.17C85.2032 118.612 86.1961 119.925 87.7368 120.223C92.3717 121.145 97.9548 119.797 102.676 116.619C106.968 113.737 108.583 109.717 107.481 104.707C106.414 99.883 108.849 93.8932 114.717 86.8911C115.678 90.9047 116.959 94.1494 118.727 96.9906L118.679 97.029C114.406 100.761 108.551 105.87 109.46 112.068C109.537 112.657 109.735 113.224 110.043 113.733C110.351 114.241 110.761 114.68 111.248 115.021C111.768 115.372 112.355 115.612 112.973 115.726C113.59 115.839 114.224 115.824 114.835 115.681C120.431 114.505 124.643 112.138 127.705 108.451C130.768 104.765 129.65 100.677 128.618 97.5063C136.626 95.3346 143.756 95.389 150.432 97.6665C154.179 98.9477 156.867 101.052 158.417 103.957C160.368 107.612 159.314 110.985 155.441 113.455C154.253 114.214 153.68 114.678 153.644 115.264C153.636 115.4 153.661 115.536 153.717 115.661C153.773 115.785 153.858 115.894 153.965 115.979C154.413 116.347 155.797 116.988 158.926 115.018C161.809 113.208 163.5 110.745 163.933 107.651C164.02 106.798 164.019 105.938 163.93 105.085ZM35.891 113.112L35.859 113.522C35.3593 118.211 32.9762 122.298 28.7641 125.694C26.1183 127.827 23.2451 129.137 20.6762 129.387C18.8824 129.56 17.5788 129.317 16.8036 128.66C16.2239 128.17 15.9131 127.436 15.8427 126.418C15.3174 118.256 28.1171 110.146 35.3209 107.478C35.835 109.309 36.0279 111.215 35.891 113.112ZM68.675 90.0943C67.4899 96.8497 64.0337 109.601 58.6012 114.55C58.3417 114.787 58.1239 114.87 58.0246 114.848C57.9253 114.826 57.8485 114.707 57.7684 114.528C55.9554 110.325 56.6249 103.227 59.3699 97.6504C61.4808 93.3519 64.4949 90.5043 67.8646 89.6426C68.0045 89.604 68.1488 89.5836 68.2939 89.5818C68.4073 89.5738 68.5201 89.6043 68.6142 89.6683C68.6538 89.7309 68.6797 89.8013 68.6902 89.8747C68.7007 89.9482 68.6955 90.023 68.675 90.0943ZM95.4179 114.72C94.3961 115.787 92.9963 115.642 93.3263 115.252L98.5282 109.729C98.1085 111.629 96.8689 113.202 95.4179 114.72ZM116.997 109.944C116.503 110.188 115.967 110.339 115.418 110.389C115.271 107.484 118.086 104.214 120.864 102.032C121.61 105.062 120.082 108.266 116.997 109.944Z" fill="black"/>
</g>
<path d="M56.1193 176.835C57.2859 176.835 58.1726 176.975 58.7793 177.255C59.3859 177.512 59.9226 177.803 60.3893 178.13C60.6693 178.293 60.8909 178.422 61.0543 178.515C61.2409 178.585 61.4159 178.62 61.5793 178.62C61.8126 178.62 61.9759 178.492 62.0693 178.235C62.1859 177.978 62.2793 177.593 62.3493 177.08H63.1543C63.1309 177.477 63.0959 177.955 63.0493 178.515C63.0259 179.052 63.0026 179.775 62.9793 180.685C62.9793 181.572 62.9793 182.75 62.9793 184.22H62.1743C62.1043 183.1 61.8593 182.027 61.4393 181C61.0193 179.973 60.4009 179.133 59.5843 178.48C58.7909 177.827 57.7409 177.5 56.4343 177.5C55.1976 177.5 54.1709 177.873 53.3543 178.62C52.5609 179.367 52.1643 180.347 52.1643 181.56C52.1643 182.61 52.4326 183.497 52.9693 184.22C53.5059 184.92 54.2176 185.562 55.1043 186.145C56.0143 186.705 56.9943 187.312 58.0443 187.965C59.2576 188.712 60.3309 189.458 61.2643 190.205C62.2209 190.928 62.9676 191.733 63.5043 192.62C64.0643 193.507 64.3443 194.58 64.3443 195.84C64.3443 197.333 64.0059 198.57 63.3293 199.55C62.6526 200.53 61.7543 201.265 60.6343 201.755C59.5143 202.245 58.2776 202.49 56.9243 202.49C55.6876 202.49 54.7076 202.35 53.9843 202.07C53.2609 201.79 52.6426 201.498 52.1293 201.195C51.6159 200.868 51.2193 200.705 50.9393 200.705C50.7059 200.705 50.5309 200.833 50.4143 201.09C50.3209 201.347 50.2393 201.732 50.1693 202.245H49.3643C49.4109 201.755 49.4343 201.183 49.4343 200.53C49.4576 199.853 49.4693 198.978 49.4693 197.905C49.4926 196.832 49.5043 195.478 49.5043 193.845H50.3093C50.4026 195.245 50.6593 196.552 51.0793 197.765C51.5226 198.978 52.1876 199.958 53.0743 200.705C53.9843 201.428 55.1859 201.79 56.6793 201.79C57.4493 201.79 58.1726 201.638 58.8493 201.335C59.5493 201.008 60.1209 200.507 60.5643 199.83C61.0076 199.13 61.2293 198.232 61.2293 197.135C61.2293 196.178 60.9959 195.35 60.5293 194.65C60.0859 193.927 59.4559 193.262 58.6393 192.655C57.8226 192.025 56.8659 191.383 55.7693 190.73C54.6726 190.053 53.6459 189.365 52.6893 188.665C51.7326 187.965 50.9626 187.16 50.3793 186.25C49.8193 185.317 49.5393 184.197 49.5393 182.89C49.5393 181.513 49.8426 180.382 50.4493 179.495C51.0793 178.585 51.8959 177.92 52.8993 177.5C53.9026 177.057 54.9759 176.835 56.1193 176.835ZM72.1331 202.245C71.1765 202.245 70.3481 202.07 69.6481 201.72C68.9481 201.347 68.4115 200.833 68.0381 200.18C67.6881 199.527 67.5131 198.768 67.5131 197.905C67.5131 196.878 67.7465 196.038 68.2131 195.385C68.7031 194.732 69.3215 194.207 70.0681 193.81C70.8148 193.413 71.5965 193.087 72.4131 192.83C73.2531 192.55 74.0465 192.293 74.7931 192.06C75.5398 191.803 76.1465 191.512 76.6131 191.185C77.1031 190.858 77.3481 190.427 77.3481 189.89V187.72C77.3481 186.74 77.1965 185.993 76.8931 185.48C76.6131 184.967 76.2281 184.628 75.7381 184.465C75.2481 184.278 74.6998 184.185 74.0931 184.185C73.5098 184.185 72.8798 184.267 72.2031 184.43C71.5498 184.593 71.0248 184.932 70.6281 185.445C71.0715 185.538 71.4565 185.772 71.7831 186.145C72.1098 186.518 72.2731 186.997 72.2731 187.58C72.2731 188.163 72.0865 188.63 71.7131 188.98C71.3398 189.307 70.8615 189.47 70.2781 189.47C69.6015 189.47 69.0998 189.26 68.7731 188.84C68.4698 188.397 68.3181 187.907 68.3181 187.37C68.3181 186.763 68.4698 186.273 68.7731 185.9C69.0765 185.527 69.4615 185.177 69.9281 184.85C70.4648 184.477 71.1531 184.162 71.9931 183.905C72.8565 183.625 73.8248 183.485 74.8981 183.485C75.8548 183.485 76.6715 183.602 77.3481 183.835C78.0248 184.045 78.5848 184.36 79.0281 184.78C79.6348 185.34 80.0315 186.028 80.2181 186.845C80.4048 187.638 80.4981 188.595 80.4981 189.715V199.445C80.4981 200.028 80.5798 200.448 80.7431 200.705C80.9298 200.962 81.2098 201.09 81.5831 201.09C81.8398 201.09 82.0848 201.032 82.3181 200.915C82.5515 200.798 82.8315 200.612 83.1581 200.355L83.5431 200.95C83.0531 201.323 82.5865 201.638 82.1431 201.895C81.6998 202.128 81.1048 202.245 80.3581 202.245C79.6815 202.245 79.1215 202.128 78.6781 201.895C78.2348 201.662 77.8965 201.323 77.6631 200.88C77.4531 200.413 77.3481 199.83 77.3481 199.13C76.7181 200.18 75.9598 200.962 75.0731 201.475C74.2098 201.988 73.2298 202.245 72.1331 202.245ZM73.3931 200.845C74.1631 200.845 74.8748 200.623 75.5281 200.18C76.2048 199.737 76.8115 199.072 77.3481 198.185V191.325C77.0681 191.722 76.6598 192.06 76.1231 192.34C75.5865 192.597 75.0031 192.865 74.3731 193.145C73.7431 193.402 73.1365 193.717 72.5531 194.09C71.9931 194.44 71.5265 194.907 71.1531 195.49C70.7798 196.073 70.5931 196.832 70.5931 197.765C70.5931 198.698 70.8381 199.445 71.3281 200.005C71.8415 200.565 72.5298 200.845 73.3931 200.845ZM89.6523 202.245C88.6956 202.245 87.8673 202.07 87.1673 201.72C86.4673 201.347 85.9306 200.833 85.5573 200.18C85.2073 199.527 85.0323 198.768 85.0323 197.905C85.0323 196.878 85.2656 196.038 85.7323 195.385C86.2223 194.732 86.8406 194.207 87.5873 193.81C88.3339 193.413 89.1156 193.087 89.9323 192.83C90.7723 192.55 91.5656 192.293 92.3123 192.06C93.0589 191.803 93.6656 191.512 94.1323 191.185C94.6223 190.858 94.8673 190.427 94.8673 189.89V187.72C94.8673 186.74 94.7156 185.993 94.4123 185.48C94.1323 184.967 93.7473 184.628 93.2573 184.465C92.7673 184.278 92.2189 184.185 91.6123 184.185C91.0289 184.185 90.3989 184.267 89.7223 184.43C89.0689 184.593 88.5439 184.932 88.1473 185.445C88.5906 185.538 88.9756 185.772 89.3023 186.145C89.6289 186.518 89.7923 186.997 89.7923 187.58C89.7923 188.163 89.6056 188.63 89.2323 188.98C88.8589 189.307 88.3806 189.47 87.7973 189.47C87.1206 189.47 86.6189 189.26 86.2923 188.84C85.9889 188.397 85.8373 187.907 85.8373 187.37C85.8373 186.763 85.9889 186.273 86.2923 185.9C86.5956 185.527 86.9806 185.177 87.4473 184.85C87.9839 184.477 88.6723 184.162 89.5123 183.905C90.3756 183.625 91.3439 183.485 92.4173 183.485C93.3739 183.485 94.1906 183.602 94.8673 183.835C95.5439 184.045 96.1039 184.36 96.5473 184.78C97.1539 185.34 97.5506 186.028 97.7373 186.845C97.9239 187.638 98.0173 188.595 98.0173 189.715V199.445C98.0173 200.028 98.0989 200.448 98.2623 200.705C98.4489 200.962 98.7289 201.09 99.1023 201.09C99.3589 201.09 99.6039 201.032 99.8373 200.915C100.071 200.798 100.351 200.612 100.677 200.355L101.062 200.95C100.572 201.323 100.106 201.638 99.6623 201.895C99.2189 202.128 98.6239 202.245 97.8773 202.245C97.2006 202.245 96.6406 202.128 96.1973 201.895C95.7539 201.662 95.4156 201.323 95.1823 200.88C94.9723 200.413 94.8673 199.83 94.8673 199.13C94.2373 200.18 93.4789 200.962 92.5923 201.475C91.7289 201.988 90.7489 202.245 89.6523 202.245ZM90.9123 200.845C91.6823 200.845 92.3939 200.623 93.0473 200.18C93.7239 199.737 94.3306 199.072 94.8673 198.185V191.325C94.5873 191.722 94.1789 192.06 93.6423 192.34C93.1056 192.597 92.5223 192.865 91.8923 193.145C91.2623 193.402 90.6556 193.717 90.0723 194.09C89.5123 194.44 89.0456 194.907 88.6723 195.49C88.2989 196.073 88.1123 196.832 88.1123 197.765C88.1123 198.698 88.3573 199.445 88.8473 200.005C89.3606 200.565 90.0489 200.845 90.9123 200.845ZM108.466 183.485C109.4 183.485 110.193 183.637 110.846 183.94C111.5 184.243 111.978 184.523 112.281 184.78C113.051 185.41 113.518 184.99 113.681 183.52H114.486C114.44 184.173 114.405 184.955 114.381 185.865C114.358 186.752 114.346 187.953 114.346 189.47H113.541C113.401 188.607 113.156 187.767 112.806 186.95C112.48 186.133 111.99 185.468 111.336 184.955C110.683 184.418 109.831 184.15 108.781 184.15C107.965 184.15 107.276 184.383 106.716 184.85C106.18 185.293 105.911 185.958 105.911 186.845C105.911 187.545 106.121 188.152 106.541 188.665C106.961 189.155 107.51 189.622 108.186 190.065C108.863 190.485 109.598 190.952 110.391 191.465C111.278 192.025 112.083 192.597 112.806 193.18C113.53 193.763 114.101 194.405 114.521 195.105C114.965 195.805 115.186 196.633 115.186 197.59C115.186 198.663 114.906 199.562 114.346 200.285C113.786 201.008 113.051 201.557 112.141 201.93C111.255 202.303 110.275 202.49 109.201 202.49C108.688 202.49 108.198 202.443 107.731 202.35C107.288 202.28 106.856 202.163 106.436 202C106.203 201.883 105.958 201.743 105.701 201.58C105.468 201.417 105.235 201.242 105.001 201.055C104.768 200.868 104.558 200.88 104.371 201.09C104.185 201.277 104.045 201.662 103.951 202.245H103.146C103.193 201.498 103.228 200.588 103.251 199.515C103.275 198.442 103.286 197.018 103.286 195.245H104.091C104.255 196.552 104.488 197.695 104.791 198.675C105.095 199.655 105.573 200.425 106.226 200.985C106.88 201.522 107.79 201.79 108.956 201.79C109.423 201.79 109.89 201.685 110.356 201.475C110.846 201.265 111.255 200.915 111.581 200.425C111.908 199.935 112.071 199.282 112.071 198.465C112.071 197.438 111.698 196.598 110.951 195.945C110.205 195.292 109.26 194.603 108.116 193.88C107.276 193.343 106.483 192.807 105.736 192.27C105.013 191.733 104.418 191.127 103.951 190.45C103.508 189.773 103.286 188.957 103.286 188C103.286 186.95 103.52 186.098 103.986 185.445C104.476 184.768 105.118 184.278 105.911 183.975C106.705 183.648 107.556 183.485 108.466 183.485Z" fill="#1F1235"/>
<defs>
<clipPath id="clip0_1_1838">
<rect width="164" height="164" fill="white"/>
</clipPath>
</defs>
</svg>
